<mxfile host="app.diagrams.net" modified="2021-09-23T07:42:00.131Z" agent="5.0 (Windows NT 10.0; Win64; x64) AppleWebKit/537.36 (KHTML, like Gecko) Chrome/93.0.4577.82 Safari/537.36 Edg/93.0.961.52" etag="ES1tDk14EIWw-DzTn_UP" version="15.2.9" type="github">
  <diagram id="C5RBs43oDa-KdzZeNtuy" name="Page-1">
    <mxGraphModel dx="1230" dy="867" grid="1" gridSize="10" guides="1" tooltips="1" connect="1" arrows="1" fold="1" page="1" pageScale="1" pageWidth="827" pageHeight="1169" math="0" shadow="0">
      <root>
        <mxCell id="WIyWlLk6GJQsqaUBKTNV-0" />
        <mxCell id="WIyWlLk6GJQsqaUBKTNV-1" parent="WIyWlLk6GJQsqaUBKTNV-0" />
        <mxCell id="q6zWIIWw0FI-0CicRQKJ-36" style="edgeStyle=orthogonalEdgeStyle;rounded=0;orthogonalLoop=1;jettySize=auto;html=1;entryX=0.5;entryY=0;entryDx=0;entryDy=0;" parent="WIyWlLk6GJQsqaUBKTNV-1" source="q6zWIIWw0FI-0CicRQKJ-1" target="q6zWIIWw0FI-0CicRQKJ-28" edge="1">
          <mxGeometry relative="1" as="geometry" />
        </mxCell>
        <mxCell id="q6zWIIWw0FI-0CicRQKJ-1" value="" style="shape=parallelogram;perimeter=parallelogramPerimeter;whiteSpace=wrap;html=1;fixedSize=1;" parent="WIyWlLk6GJQsqaUBKTNV-1" vertex="1">
          <mxGeometry x="340.06" y="190" width="120" height="60" as="geometry" />
        </mxCell>
        <mxCell id="q6zWIIWw0FI-0CicRQKJ-2" value="Choose currency" style="text;html=1;strokeColor=none;fillColor=none;align=center;verticalAlign=middle;whiteSpace=wrap;rounded=0;" parent="WIyWlLk6GJQsqaUBKTNV-1" vertex="1">
          <mxGeometry x="380.06" y="205" width="40" height="30" as="geometry" />
        </mxCell>
        <mxCell id="q6zWIIWw0FI-0CicRQKJ-31" style="edgeStyle=orthogonalEdgeStyle;rounded=0;orthogonalLoop=1;jettySize=auto;html=1;" parent="WIyWlLk6GJQsqaUBKTNV-1" source="q6zWIIWw0FI-0CicRQKJ-28" edge="1">
          <mxGeometry relative="1" as="geometry">
            <mxPoint x="540" y="339.9999999999999" as="targetPoint" />
          </mxGeometry>
        </mxCell>
        <mxCell id="q6zWIIWw0FI-0CicRQKJ-38" style="edgeStyle=orthogonalEdgeStyle;rounded=0;orthogonalLoop=1;jettySize=auto;html=1;exitX=0.5;exitY=1;exitDx=0;exitDy=0;" parent="WIyWlLk6GJQsqaUBKTNV-1" source="q6zWIIWw0FI-0CicRQKJ-28" edge="1">
          <mxGeometry relative="1" as="geometry">
            <mxPoint x="399.8823529411766" y="409.9999999999999" as="targetPoint" />
          </mxGeometry>
        </mxCell>
        <mxCell id="q6zWIIWw0FI-0CicRQKJ-28" value="" style="rhombus;whiteSpace=wrap;html=1;" parent="WIyWlLk6GJQsqaUBKTNV-1" vertex="1">
          <mxGeometry x="340.06" y="300" width="120.06" height="80" as="geometry" />
        </mxCell>
        <mxCell id="q6zWIIWw0FI-0CicRQKJ-29" value="currency = 1" style="text;html=1;strokeColor=none;fillColor=none;align=center;verticalAlign=middle;whiteSpace=wrap;rounded=0;" parent="WIyWlLk6GJQsqaUBKTNV-1" vertex="1">
          <mxGeometry x="368.00000000000006" y="329" width="70.09" height="20" as="geometry" />
        </mxCell>
        <mxCell id="q6zWIIWw0FI-0CicRQKJ-34" style="edgeStyle=orthogonalEdgeStyle;rounded=0;orthogonalLoop=1;jettySize=auto;html=1;" parent="WIyWlLk6GJQsqaUBKTNV-1" source="q6zWIIWw0FI-0CicRQKJ-32" edge="1">
          <mxGeometry relative="1" as="geometry">
            <mxPoint x="720" y="450" as="targetPoint" />
          </mxGeometry>
        </mxCell>
        <mxCell id="q6zWIIWw0FI-0CicRQKJ-32" value="" style="rounded=0;whiteSpace=wrap;html=1;" parent="WIyWlLk6GJQsqaUBKTNV-1" vertex="1">
          <mxGeometry x="540" y="310" width="120" height="60" as="geometry" />
        </mxCell>
        <mxCell id="q6zWIIWw0FI-0CicRQKJ-33" value="convert from dollar to nok" style="text;html=1;strokeColor=none;fillColor=none;align=center;verticalAlign=middle;whiteSpace=wrap;rounded=0;" parent="WIyWlLk6GJQsqaUBKTNV-1" vertex="1">
          <mxGeometry x="565" y="330" width="70" height="20" as="geometry" />
        </mxCell>
        <mxCell id="q6zWIIWw0FI-0CicRQKJ-46" style="edgeStyle=orthogonalEdgeStyle;rounded=0;orthogonalLoop=1;jettySize=auto;html=1;" parent="WIyWlLk6GJQsqaUBKTNV-1" source="q6zWIIWw0FI-0CicRQKJ-48" edge="1">
          <mxGeometry relative="1" as="geometry">
            <mxPoint x="540" y="449.9999999999999" as="targetPoint" />
          </mxGeometry>
        </mxCell>
        <mxCell id="q6zWIIWw0FI-0CicRQKJ-47" style="edgeStyle=orthogonalEdgeStyle;rounded=0;orthogonalLoop=1;jettySize=auto;html=1;exitX=0.5;exitY=1;exitDx=0;exitDy=0;" parent="WIyWlLk6GJQsqaUBKTNV-1" source="q6zWIIWw0FI-0CicRQKJ-48" edge="1">
          <mxGeometry relative="1" as="geometry">
            <mxPoint x="399.8823529411766" y="519.9999999999999" as="targetPoint" />
          </mxGeometry>
        </mxCell>
        <mxCell id="q6zWIIWw0FI-0CicRQKJ-48" value="" style="rhombus;whiteSpace=wrap;html=1;" parent="WIyWlLk6GJQsqaUBKTNV-1" vertex="1">
          <mxGeometry x="340.06" y="410" width="120.06" height="80" as="geometry" />
        </mxCell>
        <mxCell id="q6zWIIWw0FI-0CicRQKJ-49" value="currency = 2" style="text;html=1;strokeColor=none;fillColor=none;align=center;verticalAlign=middle;whiteSpace=wrap;rounded=0;" parent="WIyWlLk6GJQsqaUBKTNV-1" vertex="1">
          <mxGeometry x="368.00000000000006" y="439" width="70.09" height="20" as="geometry" />
        </mxCell>
        <mxCell id="q6zWIIWw0FI-0CicRQKJ-50" style="edgeStyle=orthogonalEdgeStyle;rounded=0;orthogonalLoop=1;jettySize=auto;html=1;" parent="WIyWlLk6GJQsqaUBKTNV-1" source="q6zWIIWw0FI-0CicRQKJ-51" edge="1">
          <mxGeometry relative="1" as="geometry">
            <mxPoint x="720" y="560" as="targetPoint" />
          </mxGeometry>
        </mxCell>
        <mxCell id="q6zWIIWw0FI-0CicRQKJ-51" value="" style="rounded=0;whiteSpace=wrap;html=1;" parent="WIyWlLk6GJQsqaUBKTNV-1" vertex="1">
          <mxGeometry x="540" y="420" width="120" height="60" as="geometry" />
        </mxCell>
        <mxCell id="q6zWIIWw0FI-0CicRQKJ-52" value="convert from euro to nok" style="text;html=1;strokeColor=none;fillColor=none;align=center;verticalAlign=middle;whiteSpace=wrap;rounded=0;" parent="WIyWlLk6GJQsqaUBKTNV-1" vertex="1">
          <mxGeometry x="565" y="440" width="70" height="20" as="geometry" />
        </mxCell>
        <mxCell id="q6zWIIWw0FI-0CicRQKJ-53" style="edgeStyle=orthogonalEdgeStyle;rounded=0;orthogonalLoop=1;jettySize=auto;html=1;" parent="WIyWlLk6GJQsqaUBKTNV-1" source="q6zWIIWw0FI-0CicRQKJ-55" edge="1">
          <mxGeometry relative="1" as="geometry">
            <mxPoint x="540" y="559.9999999999999" as="targetPoint" />
          </mxGeometry>
        </mxCell>
        <mxCell id="q6zWIIWw0FI-0CicRQKJ-54" style="edgeStyle=orthogonalEdgeStyle;rounded=0;orthogonalLoop=1;jettySize=auto;html=1;exitX=0.5;exitY=1;exitDx=0;exitDy=0;" parent="WIyWlLk6GJQsqaUBKTNV-1" source="q6zWIIWw0FI-0CicRQKJ-55" edge="1">
          <mxGeometry relative="1" as="geometry">
            <mxPoint x="399.8823529411766" y="629.9999999999999" as="targetPoint" />
          </mxGeometry>
        </mxCell>
        <mxCell id="q6zWIIWw0FI-0CicRQKJ-55" value="" style="rhombus;whiteSpace=wrap;html=1;" parent="WIyWlLk6GJQsqaUBKTNV-1" vertex="1">
          <mxGeometry x="340.06" y="520" width="120.06" height="80" as="geometry" />
        </mxCell>
        <mxCell id="q6zWIIWw0FI-0CicRQKJ-56" value="currency = 3" style="text;html=1;strokeColor=none;fillColor=none;align=center;verticalAlign=middle;whiteSpace=wrap;rounded=0;" parent="WIyWlLk6GJQsqaUBKTNV-1" vertex="1">
          <mxGeometry x="368.00000000000006" y="549" width="70.09" height="20" as="geometry" />
        </mxCell>
        <mxCell id="q6zWIIWw0FI-0CicRQKJ-57" style="edgeStyle=orthogonalEdgeStyle;rounded=0;orthogonalLoop=1;jettySize=auto;html=1;" parent="WIyWlLk6GJQsqaUBKTNV-1" source="q6zWIIWw0FI-0CicRQKJ-58" edge="1">
          <mxGeometry relative="1" as="geometry">
            <mxPoint x="720" y="880" as="targetPoint" />
          </mxGeometry>
        </mxCell>
        <mxCell id="q6zWIIWw0FI-0CicRQKJ-58" value="" style="rounded=0;whiteSpace=wrap;html=1;" parent="WIyWlLk6GJQsqaUBKTNV-1" vertex="1">
          <mxGeometry x="540" y="530" width="120" height="60" as="geometry" />
        </mxCell>
        <mxCell id="q6zWIIWw0FI-0CicRQKJ-59" value="convert from swedish crowns to nok" style="text;html=1;strokeColor=none;fillColor=none;align=center;verticalAlign=middle;whiteSpace=wrap;rounded=0;" parent="WIyWlLk6GJQsqaUBKTNV-1" vertex="1">
          <mxGeometry x="565" y="550" width="70" height="20" as="geometry" />
        </mxCell>
        <mxCell id="q6zWIIWw0FI-0CicRQKJ-60" style="edgeStyle=orthogonalEdgeStyle;rounded=0;orthogonalLoop=1;jettySize=auto;html=1;" parent="WIyWlLk6GJQsqaUBKTNV-1" source="q6zWIIWw0FI-0CicRQKJ-62" edge="1">
          <mxGeometry relative="1" as="geometry">
            <mxPoint x="540" y="669.9999999999999" as="targetPoint" />
          </mxGeometry>
        </mxCell>
        <mxCell id="q6zWIIWw0FI-0CicRQKJ-61" style="edgeStyle=orthogonalEdgeStyle;rounded=0;orthogonalLoop=1;jettySize=auto;html=1;exitX=0.5;exitY=1;exitDx=0;exitDy=0;" parent="WIyWlLk6GJQsqaUBKTNV-1" source="q6zWIIWw0FI-0CicRQKJ-62" edge="1">
          <mxGeometry relative="1" as="geometry">
            <mxPoint x="399.8823529411766" y="739.9999999999999" as="targetPoint" />
          </mxGeometry>
        </mxCell>
        <mxCell id="q6zWIIWw0FI-0CicRQKJ-62" value="" style="rhombus;whiteSpace=wrap;html=1;" parent="WIyWlLk6GJQsqaUBKTNV-1" vertex="1">
          <mxGeometry x="340.06" y="630" width="120.06" height="80" as="geometry" />
        </mxCell>
        <mxCell id="q6zWIIWw0FI-0CicRQKJ-63" value="currency = 4" style="text;html=1;strokeColor=none;fillColor=none;align=center;verticalAlign=middle;whiteSpace=wrap;rounded=0;" parent="WIyWlLk6GJQsqaUBKTNV-1" vertex="1">
          <mxGeometry x="368.00000000000006" y="659" width="70.09" height="20" as="geometry" />
        </mxCell>
        <mxCell id="q6zWIIWw0FI-0CicRQKJ-65" value="" style="rounded=0;whiteSpace=wrap;html=1;" parent="WIyWlLk6GJQsqaUBKTNV-1" vertex="1">
          <mxGeometry x="540" y="640" width="120" height="60" as="geometry" />
        </mxCell>
        <mxCell id="q6zWIIWw0FI-0CicRQKJ-66" value="exit code" style="text;html=1;strokeColor=none;fillColor=none;align=center;verticalAlign=middle;whiteSpace=wrap;rounded=0;" parent="WIyWlLk6GJQsqaUBKTNV-1" vertex="1">
          <mxGeometry x="565" y="660" width="70" height="20" as="geometry" />
        </mxCell>
        <mxCell id="q6zWIIWw0FI-0CicRQKJ-69" style="edgeStyle=orthogonalEdgeStyle;rounded=0;orthogonalLoop=1;jettySize=auto;html=1;" parent="WIyWlLk6GJQsqaUBKTNV-1" source="q6zWIIWw0FI-0CicRQKJ-67" edge="1" target="mcnhoi7SSXkwdcq473EK-7">
          <mxGeometry relative="1" as="geometry">
            <mxPoint x="400" y="910" as="targetPoint" />
          </mxGeometry>
        </mxCell>
        <mxCell id="q6zWIIWw0FI-0CicRQKJ-67" value="" style="rounded=0;whiteSpace=wrap;html=1;" parent="WIyWlLk6GJQsqaUBKTNV-1" vertex="1">
          <mxGeometry x="340.06" y="740" width="120" height="60" as="geometry" />
        </mxCell>
        <mxCell id="q6zWIIWw0FI-0CicRQKJ-68" value="bad value" style="text;html=1;strokeColor=none;fillColor=none;align=center;verticalAlign=middle;whiteSpace=wrap;rounded=0;" parent="WIyWlLk6GJQsqaUBKTNV-1" vertex="1">
          <mxGeometry x="380.09" y="760" width="40" height="20" as="geometry" />
        </mxCell>
        <mxCell id="q6zWIIWw0FI-0CicRQKJ-73" value="" style="endArrow=none;html=1;" parent="WIyWlLk6GJQsqaUBKTNV-1" edge="1">
          <mxGeometry width="50" height="50" relative="1" as="geometry">
            <mxPoint x="599.71" y="910" as="sourcePoint" />
            <mxPoint x="599.71" y="700" as="targetPoint" />
          </mxGeometry>
        </mxCell>
        <mxCell id="q6zWIIWw0FI-0CicRQKJ-75" value="" style="shape=parallelogram;perimeter=parallelogramPerimeter;whiteSpace=wrap;html=1;fixedSize=1;" parent="WIyWlLk6GJQsqaUBKTNV-1" vertex="1">
          <mxGeometry x="660" y="880" width="120" height="60" as="geometry" />
        </mxCell>
        <mxCell id="q6zWIIWw0FI-0CicRQKJ-76" value="Print amount" style="text;html=1;strokeColor=none;fillColor=none;align=center;verticalAlign=middle;whiteSpace=wrap;rounded=0;" parent="WIyWlLk6GJQsqaUBKTNV-1" vertex="1">
          <mxGeometry x="700" y="900" width="40" height="20" as="geometry" />
        </mxCell>
        <mxCell id="q6zWIIWw0FI-0CicRQKJ-80" value="" style="endArrow=classic;html=1;exitX=0;exitY=0.5;exitDx=0;exitDy=0;entryX=1;entryY=0.5;entryDx=0;entryDy=0;" parent="WIyWlLk6GJQsqaUBKTNV-1" source="q6zWIIWw0FI-0CicRQKJ-75" target="mcnhoi7SSXkwdcq473EK-7" edge="1">
          <mxGeometry width="50" height="50" relative="1" as="geometry">
            <mxPoint x="575" y="920" as="sourcePoint" />
            <mxPoint x="400" y="910" as="targetPoint" />
          </mxGeometry>
        </mxCell>
        <mxCell id="mcnhoi7SSXkwdcq473EK-4" value="" style="ellipse;html=1;shape=startState;fillColor=#000000;strokeColor=#ff0000;" vertex="1" parent="WIyWlLk6GJQsqaUBKTNV-1">
          <mxGeometry x="390" y="100" width="30" height="30" as="geometry" />
        </mxCell>
        <mxCell id="mcnhoi7SSXkwdcq473EK-5" value="" style="edgeStyle=orthogonalEdgeStyle;html=1;verticalAlign=bottom;endArrow=open;endSize=8;strokeColor=#ff0000;" edge="1" source="mcnhoi7SSXkwdcq473EK-4" parent="WIyWlLk6GJQsqaUBKTNV-1">
          <mxGeometry relative="1" as="geometry">
            <mxPoint x="405" y="190" as="targetPoint" />
          </mxGeometry>
        </mxCell>
        <mxCell id="mcnhoi7SSXkwdcq473EK-7" value="" style="ellipse;html=1;shape=endState;fillColor=#000000;strokeColor=#ff0000;" vertex="1" parent="WIyWlLk6GJQsqaUBKTNV-1">
          <mxGeometry x="385" y="895" width="30" height="30" as="geometry" />
        </mxCell>
      </root>
    </mxGraphModel>
  </diagram>
</mxfile>
